<svg width="418" height="124" viewBox="0 0 418 124" fill="none" xmlns="http://www.w3.org/2000/svg">
<path fill-rule="evenodd" clip-rule="evenodd" d="M23 0C10.2975 0 0 10.2975 0 23V101C0 113.703 10.2974 124 23 124H395C407.703 124 418 113.703 418 101V23C418 10.2975 407.703 0 395 0H23ZM35.43 54.2767C34.1506 56.4817 33.5108 58.9725 33.5108 61.7492C33.5108 64.5258 34.1506 67.0167 35.43 69.2217C36.7367 71.4267 38.4925 73.1553 40.6975 74.4075C42.9025 75.6325 45.3389 76.245 48.0067 76.245C51.0283 76.245 53.7097 75.51 56.0508 74.04C58.4192 72.57 60.1342 70.4739 61.1958 67.7517H55.6017C54.8667 69.2489 53.8458 70.365 52.5392 71.1C51.2325 71.835 49.7217 72.2025 48.0067 72.2025C46.1283 72.2025 44.4542 71.7806 42.9842 70.9367C41.5142 70.0656 40.3572 68.8406 39.5133 67.2617C38.6967 65.6828 38.2883 63.8453 38.2883 61.7492C38.2883 59.653 38.6967 57.8155 39.5133 56.2367C40.3572 54.6578 41.5142 53.4464 42.9842 52.6025C44.4542 51.7586 46.1283 51.3367 48.0067 51.3367C49.7217 51.3367 51.2325 51.7042 52.5392 52.4392C53.8458 53.1742 54.8667 54.2903 55.6017 55.7875H61.1958C60.1342 53.0653 58.4192 50.9692 56.0508 49.4992C53.7097 48.0019 51.0283 47.2533 48.0067 47.2533C45.3661 47.2533 42.9297 47.8794 40.6975 49.1317C38.4925 50.3567 36.7367 52.0717 35.43 54.2767ZM70.6462 74.9383C72.3612 75.8911 74.2804 76.3675 76.4037 76.3675C78.5543 76.3675 80.5143 75.8911 82.2837 74.9383C84.0804 73.9583 85.4959 72.5836 86.5304 70.8142C87.5648 69.0447 88.0821 67.0167 88.0821 64.73C88.0821 62.4433 87.5784 60.4153 86.5712 58.6458C85.564 56.8764 84.1893 55.5153 82.4471 54.5625C80.7048 53.6097 78.7584 53.1333 76.6079 53.1333C74.4573 53.1333 72.5109 53.6097 70.7687 54.5625C69.0265 55.5153 67.6518 56.8764 66.6445 58.6458C65.6373 60.4153 65.1337 62.4433 65.1337 64.73C65.1337 67.0439 65.6237 69.0855 66.6037 70.855C67.5837 72.5972 68.9312 73.9583 70.6462 74.9383ZM79.7521 71.4675C78.7176 72.0392 77.6015 72.325 76.4037 72.325C74.5254 72.325 72.9601 71.6717 71.7079 70.365C70.4829 69.0311 69.8704 67.1528 69.8704 64.73C69.8704 63.0967 70.1698 61.7219 70.7687 60.6058C71.3676 59.4625 72.1707 58.605 73.1779 58.0333C74.2123 57.4617 75.3284 57.1758 76.5262 57.1758C77.724 57.1758 78.8401 57.4617 79.8745 58.0333C80.909 58.605 81.7393 59.4625 82.3654 60.6058C82.9915 61.7219 83.3046 63.0967 83.3046 64.73C83.3046 66.3633 82.9779 67.7517 82.3246 68.895C81.6712 70.0383 80.8137 70.8958 79.7521 71.4675ZM108.772 54.2358C107.384 53.5008 105.805 53.1333 104.035 53.1333C102.702 53.1333 101.436 53.3919 100.238 53.9092C99.0674 54.4264 98.101 55.1478 97.3388 56.0733V53.5008H92.6838V76H97.3388V63.4233C97.3388 61.4089 97.8424 59.8708 98.8496 58.8092C99.8841 57.7203 101.272 57.1758 103.015 57.1758C104.757 57.1758 106.132 57.7203 107.139 58.8092C108.146 59.8708 108.65 61.4089 108.65 63.4233V76H113.264V62.7292C113.264 60.6875 112.869 58.9453 112.08 57.5025C111.29 56.0597 110.188 54.9708 108.772 54.2358ZM124.632 69.7525V57.2983H130.104V53.5008H124.632V47.9067H119.937V53.5008H117.282V57.2983H119.937V69.7525C119.937 71.9575 120.495 73.55 121.611 74.53C122.727 75.51 124.333 76 126.429 76H130.104V72.1208H127.246C126.293 72.1208 125.612 71.9439 125.204 71.59C124.823 71.2089 124.632 70.5964 124.632 69.7525ZM134.231 58.6458C133.306 60.388 132.843 62.3889 132.843 64.6483C132.843 66.9078 133.306 68.9358 134.231 70.7325C135.184 72.5019 136.463 73.8903 138.069 74.8975C139.676 75.8775 141.445 76.3675 143.378 76.3675C145.12 76.3675 146.672 76.0136 148.033 75.3058C149.394 74.5981 150.469 73.7133 151.259 72.6517V76H155.954V53.5008H151.259V56.7675C150.469 55.733 149.407 54.8755 148.074 54.195C146.767 53.4872 145.229 53.1333 143.459 53.1333C141.499 53.1333 139.703 53.6233 138.069 54.6033C136.463 55.5561 135.184 56.9036 134.231 58.6458ZM150.279 60.6875C150.932 61.8308 151.259 63.1783 151.259 64.73C151.259 66.2817 150.932 67.6428 150.279 68.8133C149.652 69.9567 148.822 70.8278 147.788 71.4267C146.753 72.0256 145.637 72.325 144.439 72.325C143.269 72.325 142.153 72.0256 141.091 71.4267C140.057 70.8006 139.213 69.9022 138.559 68.7317C137.933 67.5611 137.62 66.2 137.62 64.6483C137.62 63.0967 137.933 61.7628 138.559 60.6467C139.213 59.5033 140.057 58.6458 141.091 58.0742C142.126 57.4753 143.242 57.1758 144.439 57.1758C145.637 57.1758 146.753 57.4753 147.788 58.0742C148.822 58.673 149.652 59.5442 150.279 60.6875ZM161.905 58.6458C160.98 60.388 160.517 62.4161 160.517 64.73C160.517 67.0439 160.98 69.0855 161.905 70.855C162.858 72.5972 164.165 73.9583 165.825 74.9383C167.486 75.8911 169.391 76.3675 171.542 76.3675C174.21 76.3675 176.442 75.7006 178.239 74.3667C180.035 73.0056 181.26 71.1817 181.914 68.895H176.891C176.02 71.2633 174.237 72.4475 171.542 72.4475C169.636 72.4475 168.112 71.7669 166.969 70.4058C165.852 69.0447 165.294 67.1528 165.294 64.73C165.294 62.3072 165.852 60.4289 166.969 59.095C168.112 57.7339 169.636 57.0533 171.542 57.0533C172.903 57.0533 174.033 57.3664 174.931 57.9925C175.829 58.6186 176.483 59.4897 176.891 60.6058H181.914C181.287 58.2103 180.076 56.3728 178.279 55.0933C176.51 53.7867 174.264 53.1333 171.542 53.1333C169.391 53.1333 167.486 53.6097 165.825 54.5625C164.165 55.5153 162.858 56.8764 161.905 58.6458ZM191.983 69.7525V57.2983H197.455V53.5008H191.983V47.9067H187.288V53.5008H184.633V57.2983H187.288V69.7525C187.288 71.9575 187.846 73.55 188.962 74.53C190.078 75.51 191.684 76 193.78 76H197.455V72.1208H194.597C193.644 72.1208 192.963 71.9439 192.555 71.59C192.174 71.2089 191.983 70.5964 191.983 69.7525ZM242.243 76V47.6208H237.261L227.338 69.875L217.375 47.6208H212.353V76H217.008V56.5633L225.705 76H228.931L237.588 56.5633V76H242.243ZM268.818 66.4858C268.927 65.8053 268.982 65.0431 268.982 64.1992C268.982 62.0214 268.519 60.1022 267.593 58.4417C266.668 56.7539 265.375 55.4472 263.714 54.5217C262.054 53.5961 260.162 53.1333 258.038 53.1333C255.833 53.1333 253.873 53.6097 252.158 54.5625C250.471 55.5153 249.15 56.8764 248.198 58.6458C247.272 60.388 246.809 62.4161 246.809 64.73C246.809 67.0439 247.286 69.0855 248.238 70.855C249.218 72.5972 250.552 73.9583 252.24 74.9383C253.955 75.8911 255.888 76.3675 258.038 76.3675C260.679 76.3675 262.884 75.7142 264.653 74.4075C266.45 73.0736 267.689 71.3722 268.369 69.3033H263.347C262.312 71.3994 260.543 72.4475 258.038 72.4475C256.296 72.4475 254.826 71.9031 253.628 70.8142C252.431 69.7253 251.764 68.2825 251.628 66.4858H268.818ZM262.285 58.605C263.483 59.6394 264.095 61.0142 264.123 62.7292H251.668C251.886 60.9869 252.567 59.6122 253.71 58.605C254.853 57.5705 256.228 57.0533 257.834 57.0533C259.604 57.0533 261.087 57.5705 262.285 58.605ZM302.831 76H307.486V47.58H302.831V68.7317L288.825 47.58H284.17V76H288.825V54.8075L302.831 76ZM317.6 74.9383C319.315 75.8911 321.234 76.3675 323.358 76.3675C325.508 76.3675 327.468 75.8911 329.238 74.9383C331.034 73.9583 332.45 72.5836 333.484 70.8142C334.519 69.0447 335.036 67.0167 335.036 64.73C335.036 62.4433 334.533 60.4153 333.525 58.6458C332.518 56.8764 331.143 55.5153 329.401 54.5625C327.659 53.6097 325.712 53.1333 323.562 53.1333C321.411 53.1333 319.465 53.6097 317.723 54.5625C315.981 55.5153 314.606 56.8764 313.599 58.6458C312.591 60.4153 312.088 62.4433 312.088 64.73C312.088 67.0439 312.578 69.0855 313.558 70.855C314.538 72.5972 315.885 73.9583 317.6 74.9383ZM326.706 71.4675C325.672 72.0392 324.556 72.325 323.358 72.325C321.479 72.325 319.914 71.6717 318.662 70.365C317.437 69.0311 316.824 67.1528 316.824 64.73C316.824 63.0967 317.124 61.7219 317.723 60.6058C318.322 59.4625 319.125 58.605 320.132 58.0333C321.166 57.4617 322.283 57.1758 323.48 57.1758C324.678 57.1758 325.794 57.4617 326.829 58.0333C327.863 58.605 328.693 59.4625 329.319 60.6058C329.946 61.7219 330.259 63.0967 330.259 64.73C330.259 66.3633 329.932 67.7517 329.279 68.895C328.625 70.0383 327.768 70.8958 326.706 71.4675ZM362.872 76L369.854 53.5008H365.281L360.626 71.5083L356.053 53.5008H351.194L346.416 71.59L341.72 53.5008H336.984L344.007 76H348.907L353.439 59.3808L357.972 76H362.872Z" fill="white"/>
</svg>
